Coordinates
version=1
nRows=22
nColumns=24
inDegrees=yes

Units are S.I. units (second, meters, Newtons, ...)
Angles are in degrees.

endheader
time	pelvis_tilt	pelvis_list	pelvis_rotation	pelvis_tx	pelvis_ty	pelvis_tz	hip_flexion_r	hip_adduction_r	hip_rotation_r	knee_angle_r	ankle_angle_r	subtalar_angle_r	mtp_angle_r	hip_flexion_l	hip_adduction_l	hip_rotation_l	knee_angle_l	ankle_angle_l	subtalar_angle_l	mtp_angle_l	lumbar_extension	lumbar_bending	lumbar_rotation
      0.58800000	      1.29743926	      5.84584969	     -1.89982210	     -0.83069929	      1.05505141	      0.34083862	     21.33642627	     -1.22411598	     -9.16447348	     -0.55324474	      2.35103620	     -1.87474492	     -0.05070874	    -15.24516999	     11.01653376	     -0.76146076	     -5.84721123	      9.73997742	      0.20417137	     -0.07479378	      2.16607641	     -3.96700489	     -1.78639548
      0.59216667	      1.32671044	      5.84921257	     -1.91887179	     -0.82504572	      1.05472050	      0.34075404	     21.28290080	     -1.17487739	     -9.06969893	     -0.97276925	      2.36549289	     -1.90986443	     -0.05088201	    -15.38221457	     11.03000062	     -0.71891060	     -6.28781965	      9.71672169	      0.16292518	     -0.09123212	      2.23210860	     -3.91514094	     -1.82682998
      0.59633333	      1.36598878	      5.88377433	     -2.02963555	     -0.81948837	      1.05435310	      0.34080604	     21.24918216	     -1.12939177	     -8.81306711	     -1.46893678	      2.56010790	     -2.14446325	     -0.05159685	    -15.49938480	     11.09790307	     -0.72829401	     -6.76202663	      9.69734932	      0.02563099	     -0.15400781	      2.14570112	     -3.92095186	     -1.96423741
      0.60050000	      1.39937264	      5.87444381	     -2.00111894	     -0.81374182	      1.05410712	      0.34067071	     21.15289557	     -1.09127827	     -8.65679508	     -1.90085166	      2.54022935	     -2.19439150	     -0.05160608	    -15.61042088	     11.07847599	     -0.69066756	     -7.27330884	      9.64548548	      0.01324605	     -0.16667244	      2.23262074	     -3.87465026	     -1.98781053
      0.60466667	      1.47291333	      5.89780014	     -2.14441173	     -0.80817554	      1.05380888	      0.34100469	     21.00800208	     -1.00400010	     -7.88030908	     -2.29825422	      2.57718647	     -3.06687615	     -0.05821558	    -15.71608397	     11.11083367	     -0.91339518	     -7.81902478	      9.48888139	      0.03955880	     -0.30380980	      2.16629539	     -3.99498393	     -2.19620643
      0.60883333	      1.45516190	      5.88602385	     -2.14975119	     -0.80236812	      1.05351751	      0.34109139	     20.94186124	     -0.93564754	     -7.53503239	     -2.70543804	      2.24374225	     -3.59195860	     -0.06530730	    -15.71617979	     11.06909349	     -1.09121390	     -8.43797018	      9.45846308	      0.30794229	     -0.41469492	      2.21167866	     -3.91198139	     -2.24467832
      0.61300000	      1.49965269	      5.87703281	     -2.15513120	     -0.79658157	      1.05333198	      0.34094968	     20.82812315	     -0.90747184	     -7.39617974	     -3.17404377	      2.20700475	     -3.61830745	     -0.06466105	    -15.78877024	     11.05556200	     -1.05135251	     -9.04213030	      9.40315455	      0.32100781	     -0.42059803	      2.29865113	     -3.83694713	     -2.25431206
      0.61716667	      1.52638739	      5.88517352	     -2.33454929	     -0.79087794	      1.05303994	      0.34142556	     20.71906669	     -0.79335427	     -6.68195646	     -3.57474259	      1.96544658	     -4.32538737	     -0.06318923	    -15.77657304	     11.05767741	     -1.50864266	     -9.71034066	      9.18919821	      0.73506565	     -0.48666497	      2.29891799	     -3.91800343	     -2.30345696
      0.62133333	      1.56257244	      5.86248086	     -2.29044603	     -0.78506156	      1.05294637	      0.34125045	     20.57504017	     -0.77393391	     -6.55164109	     -3.99079068	      1.88437023	     -4.35444776	     -0.06246299	    -15.78894459	     11.00352121	     -1.50993686	    -10.41799165	      9.13364136	      0.74754225	     -0.48970209	      2.35851080	     -3.80467704	     -2.31301130
      0.62550000	      1.58064382	      5.79379730	     -2.36133449	     -0.77910990	      1.05281755	      0.34173975	     20.38298944	     -0.60900365	     -5.92611558	     -4.24253651	      1.22183038	     -5.22950679	     -0.05642016	    -15.73439916	     10.86234172	     -2.04556363	    -11.19084731	      8.94774266	      1.45449999	     -0.50249046	      2.39168845	     -3.75453996	     -2.34132061
      0.62966667	      1.62326562	      5.78152650	     -2.33846860	     -0.77334884	      1.05277461	      0.34159818	     20.23116419	     -0.60508357	     -5.81216742	     -4.64369440	      1.13816282	     -5.25511623	     -0.05467915	    -15.69683999	     10.81424155	     -2.10730603	    -11.99205391	      8.86540714	      1.46724451	     -0.50161862	      2.43081485	     -3.64116849	     -2.35362080
      0.63383333	      1.63275999	      5.73479286	     -2.46892222	     -0.76745507	      1.05264898	      0.34198701	     20.10706332	     -0.47631447	     -5.47735557	     -4.98882263	      0.50508346	     -5.69219164	     -0.04664038	    -15.58127127	     10.72182654	     -2.67412884	    -12.82864645	      8.45989947	      2.02521554	     -0.47571079	      2.41883551	     -3.55855232	     -2.40222079
      0.63800000	      1.67636163	      5.69105450	     -2.38768745	     -0.76161091	      1.05272857	      0.34186411	     19.89623209	     -0.45982590	     -5.32531160	     -5.28903616	      0.39758172	     -5.71430574	     -0.04392595	    -15.49458090	     10.59945651	     -2.77331821	    -13.73895145	      8.36102303	      2.05568767	     -0.46965757	      2.47656209	     -3.46503940	     -2.40707809
      0.64216667	      1.66735149	      5.54603942	     -2.44776690	     -0.75542735	      1.05274028	      0.34257026	     19.65842262	     -0.21383712	     -4.69194941	     -5.39951524	     -0.53213179	     -6.67182395	     -0.01954337	    -15.32443787	     10.31409862	     -3.47115449	    -14.68388507	      7.96657581	      3.10255405	     -0.35117284	      2.56331357	     -3.38742017	     -2.44773919
      0.64633333	      1.66839644	      5.48875257	     -2.44408833	     -0.74956588	      1.05277386	      0.34265363	     19.53072799	     -0.15131397	     -4.67036349	     -5.75906521	     -0.78173106	     -6.82749560	     -0.01091202	    -15.11888740	     10.16615806	     -3.85038554	    -15.70146104	      7.74066030	      3.24930039	     -0.31489268	      2.47276636	     -3.24104345	     -2.47476313
      0.65050000	      1.72508614	      5.37182381	     -2.46812318	     -0.74351110	      1.05294039	      0.34306108	     19.25000341	      0.00639677	     -4.23742849	     -5.92198086	     -1.53394087	     -7.43794351	      0.02256701	    -14.97278499	      9.91612891	     -4.31931138	    -16.71184628	      7.22981684	      4.02803281	     -0.15293011	      2.62608116	     -3.13018687	     -2.49964842
      0.65466667	      1.75785206	      5.26572884	     -2.48383811	     -0.73753665	      1.05308647	      0.34334182	     19.04780575	      0.13368009	     -4.07424725	     -6.19864605	     -2.03456600	     -7.84025941	      0.05734039	    -14.75955205	      9.67861202	     -4.79696428	    -17.79638443	      6.76540317	      4.50784822	      0.01224773	      2.62299729	     -2.98132192	     -2.52936464
      0.65883333	      1.77504116	      5.15661198	     -2.43638663	     -0.73156478	      1.05325543	      0.34340287	     18.86819338	      0.22463002	     -4.06905100	     -6.51425348	     -2.23582079	     -7.89792434	      0.06694251	    -14.50116073	      9.43102502	     -5.14706994	    -18.94798689	      6.47262225	      4.63504987	      0.05796140	      2.55113673	     -2.83674072	     -2.55378685
      0.66300000	      1.83791386	      5.03275215	     -2.48966040	     -0.72556587	      1.05347237	      0.34365039	     18.65252650	      0.36103289	     -3.98019727	     -6.82655613	     -2.81349749	     -8.18469964	      0.08858786	    -14.27697806	      9.17310315	     -5.61541014	    -20.07012780	      5.65571588	      5.26609408	      0.19206747	      2.63946744	     -2.59960417	     -2.60946008
      0.66716667	      1.87929930	      4.88073447	     -2.47111080	     -0.71953839	      1.05372411	      0.34390853	     18.42905421	      0.51549177	     -3.87395002	     -7.10602136	     -3.23510442	     -8.53003216	      0.11363042	    -13.99436679	      8.84332796	     -6.04999596	    -21.28949774	      5.03029417	      5.75067753	      0.35329116	      2.62910450	     -2.40297654	     -2.65468782
      0.67133333	      1.92646970	      4.71722449	     -2.44627706	     -0.71352390	      1.05399901	      0.34413811	     18.20218695	      0.67227615	     -3.79440113	     -7.39838990	     -3.59288813	     -8.80135543	      0.13846317	    -13.69233683	      8.49211982	     -6.44592493	    -22.54388386	      4.38389363	      6.18281029	      0.51833677	      2.63164405	     -2.19696199	     -2.69561103
      0.67550000	      1.96695140	      4.53366756	     -2.36390325	     -0.70752844	      1.05430004	      0.34427819	     17.97211801	      0.82799425	     -3.76935709	     -7.68980379	     -3.74411873	     -8.83133306	      0.14851321	    -13.34912650	      8.09896205	     -6.76971671	    -23.88512069	      3.99087929	      6.32804243	      0.57910874	      2.56993475	     -2.06120143	     -2.71363153
